General
Unique ID                                : 214591892401167820848418294380038289998 (0xA170E527E1FF672228B19385C0797A4E)
Complete name                            : Mission.Impossible.Ghost.Protocol.2011.UHD.BluRay.2160p.TrueHD.7.1.DV.HEVC.REMUX-FraMeSToR.mkv
Format                                   : Matroska
Format version                           : Version 4
File size                                : 50.1 GiB
Duration                                 : 2 h 12 min
Overall bit rate mode                    : Variable
Overall bit rate                         : 54.0 Mb/s
Movie name                               : Mission Impossible: Ghost Protocol (2011)
Encoded date                             : UTC 2020-12-05 17:18:43
Writing application                      : mkvmerge v51.0.0 ('I Wish') 64-bit
Writing library                          : libebml v1.4.0 + libmatroska v1.6.2
IMDB                                     : tt1229238
TMDB                                     : movie/56292

Video
ID                                       : 1
ID in the original source medium         : 4113 (0x1011)
Format                                   : HEVC
Format/Info                              : High Efficiency Video Coding
Format profile                           : Main 10@L5.1@High
HDR format                               : Dolby Vision, Version 1.0, dvhe.07.06, BL+EL+RPU, Blu-ray compatible / SMPTE ST 2086, HDR10 compatible
Codec ID                                 : V_MPEGH/ISO/HEVC
Duration                                 : 2 h 12 min
Bit rate                                 : 48.0 Mb/s
Width                                    : 3 840 pixels
Height                                   : 2 160 pixels
Display aspect ratio                     : 16:9
Frame rate mode                          : Constant
Frame rate                               : 23.976 (24000/1001) FPS
Color space                              : YUV
Chroma subsampling                       : 4:2:0 (Type 2)
Bit depth                                : 10 bits
Bits/(Pixel*Frame)                       : 0.241
Stream size                              : 44.5 GiB (89%)
Language                                 : English
Default                                  : No
Forced                                   : No
Color range                              : Limited
Color primaries                          : BT.2020
Transfer characteristics                 : PQ
Matrix coefficients                      : BT.2020 non-constant
Mastering display color primaries        : Display P3
Mastering display luminance              : min: 0.0001 cd/m2, max: 1000 cd/m2
Original source medium                   : Blu-ray

Audio #1
ID                                       : 2
Format                                   : MLP FBA
Format/Info                              : Meridian Lossless Packing FBA
Commercial name                          : Dolby TrueHD
Codec ID                                 : A_TRUEHD
Duration                                 : 2 h 12 min
Bit rate mode                            : Variable
Bit rate                                 : 4 492 kb/s
Maximum bit rate                         : 6 759 kb/s
Channel(s)                               : 8 channels
Channel layout                           : L R C LFE Ls Rs Lb Rb
Sampling rate                            : 48.0 kHz
Frame rate                               : 1 200.000 FPS (40 SPF)
Compression mode                         : Lossless
Stream size                              : 4.17 GiB (8%)
Title                                    : TrueHD 7.1
Language                                 : English
Default                                  : Yes
Forced                                   : No

Audio #2
ID                                       : 3
Format                                   : AC-3
Format/Info                              : Audio Coding 3
Commercial name                          : Dolby Digital
Codec ID                                 : A_AC3
Duration                                 : 2 h 12 min
Bit rate mode                            : Constant
Bit rate                                 : 640 kb/s
Channel(s)                               : 6 channels
Channel layout                           : L R C LFE Ls Rs
Sampling rate                            : 48.0 kHz
Frame rate                               : 31.250 FPS (1536 SPF)
Compression mode                         : Lossy
Stream size                              : 609 MiB (1%)
Title                                    : AC-3 5.1
Language                                 : English
Service kind                             : Complete Main
Default                                  : No
Forced                                   : No

Text #1
ID                                       : 4
Format                                   : PGS
Codec ID                                 : S_HDMV/PGS
Codec ID/Info                            : Picture based subtitle format used on BDs/HD-DVDs
Duration                                 : 1 h 55 min
Bit rate                                 : 3 664 b/s
Count of elements                        : 188
Stream size                              : 3.02 MiB (0%)
Title                                    : English (Forced)
Language                                 : English
Default                                  : Yes
Forced                                   : Yes

Text #2
ID                                       : 5
Format                                   : PGS
Codec ID                                 : S_HDMV/PGS
Codec ID/Info                            : Picture based subtitle format used on BDs/HD-DVDs
Duration                                 : 2 h 2 min
Bit rate                                 : 60.4 kb/s
Count of elements                        : 2564
Stream size                              : 53.1 MiB (0%)
Title                                    : English
Language                                 : English
Default                                  : No
Forced                                   : No

Text #3
ID                                       : 6
Format                                   : PGS
Codec ID                                 : S_HDMV/PGS
Codec ID/Info                            : Picture based subtitle format used on BDs/HD-DVDs
Duration                                 : 2 h 5 min
Bit rate                                 : 17.7 kb/s
Count of elements                        : 3211
Stream size                              : 15.9 MiB (0%)
Title                                    : English (SDH)
Language                                 : English
Default                                  : No
Forced                                   : No

Text #4
ID                                       : 7
Format                                   : PGS
Codec ID                                 : S_HDMV/PGS
Codec ID/Info                            : Picture based subtitle format used on BDs/HD-DVDs
Duration                                 : 2 h 11 min
Bit rate                                 : 12.9 kb/s
Count of elements                        : 2486
Stream size                              : 12.2 MiB (0%)
Title                                    : Arabic
Language                                 : Arabic
Default                                  : No
Forced                                   : No

Text #5
ID                                       : 8
Format                                   : PGS
Codec ID                                 : S_HDMV/PGS
Codec ID/Info                            : Picture based subtitle format used on BDs/HD-DVDs
Duration                                 : 2 h 11 min
Bit rate                                 : 12.5 kb/s
Count of elements                        : 2464
Stream size                              : 11.8 MiB (0%)
Title                                    : Bulgarian
Language                                 : Bulgarian
Default                                  : No
Forced                                   : No

Text #6
ID                                       : 9
Format                                   : PGS
Codec ID                                 : S_HDMV/PGS
Codec ID/Info                            : Picture based subtitle format used on BDs/HD-DVDs
Duration                                 : 2 h 11 min
Bit rate                                 : 17.6 kb/s
Count of elements                        : 2484
Stream size                              : 16.6 MiB (0%)
Title                                    : Chinese (Cantonese)
Language                                 : Chinese
Default                                  : No
Forced                                   : No

Text #7
ID                                       : 10
Format                                   : PGS
Codec ID                                 : S_HDMV/PGS
Codec ID/Info                            : Picture based subtitle format used on BDs/HD-DVDs
Duration                                 : 2 h 5 min
Bit rate                                 : 46.6 kb/s
Count of elements                        : 2698
Stream size                              : 41.8 MiB (0%)
Title                                    : Chinese (Mandarin Simplified)
Language                                 : Chinese
Default                                  : No
Forced                                   : No

Text #8
ID                                       : 11
Format                                   : PGS
Codec ID                                 : S_HDMV/PGS
Codec ID/Info                            : Picture based subtitle format used on BDs/HD-DVDs
Duration                                 : 2 h 11 min
Bit rate                                 : 18.7 kb/s
Count of elements                        : 2714
Stream size                              : 17.7 MiB (0%)
Title                                    : Chinese (Mandarin Traditional)
Language                                 : Chinese
Default                                  : No
Forced                                   : No

Text #9
ID                                       : 12
Format                                   : PGS
Codec ID                                 : S_HDMV/PGS
Codec ID/Info                            : Picture based subtitle format used on BDs/HD-DVDs
Duration                                 : 2 h 11 min
Bit rate                                 : 12.2 kb/s
Count of elements                        : 2468
Stream size                              : 11.6 MiB (0%)
Title                                    : Croatian
Language                                 : Croatian
Default                                  : No
Forced                                   : No

Text #10
ID                                       : 13
Format                                   : PGS
Codec ID                                 : S_HDMV/PGS
Codec ID/Info                            : Picture based subtitle format used on BDs/HD-DVDs
Duration                                 : 2 h 10 min
Bit rate                                 : 12.4 kb/s
Count of elements                        : 2472
Stream size                              : 11.6 MiB (0%)
Title                                    : Czech
Language                                 : Czech
Default                                  : No
Forced                                   : No

Text #11
ID                                       : 14
Format                                   : PGS
Codec ID                                 : S_HDMV/PGS
Codec ID/Info                            : Picture based subtitle format used on BDs/HD-DVDs
Duration                                 : 2 h 10 min
Bit rate                                 : 12.6 kb/s
Count of elements                        : 1836
Stream size                              : 11.8 MiB (0%)
Title                                    : Danish
Language                                 : Danish
Default                                  : No
Forced                                   : No

Text #12
ID                                       : 15
Format                                   : PGS
Codec ID                                 : S_HDMV/PGS
Codec ID/Info                            : Picture based subtitle format used on BDs/HD-DVDs
Duration                                 : 2 h 11 min
Bit rate                                 : 11.1 kb/s
Count of elements                        : 1826
Stream size                              : 10.4 MiB (0%)
Title                                    : Dutch
Language                                 : Dutch
Default                                  : No
Forced                                   : No

Text #13
ID                                       : 16
Format                                   : PGS
Codec ID                                 : S_HDMV/PGS
Codec ID/Info                            : Picture based subtitle format used on BDs/HD-DVDs
Duration                                 : 2 h 5 min
Bit rate                                 : 56.8 kb/s
Count of elements                        : 2586
Stream size                              : 50.9 MiB (0%)
Title                                    : Dutch (Flemish)
Language                                 : Dutch
Default                                  : No
Forced                                   : No

Text #14
ID                                       : 17
Format                                   : PGS
Codec ID                                 : S_HDMV/PGS
Codec ID/Info                            : Picture based subtitle format used on BDs/HD-DVDs
Duration                                 : 2 h 10 min
Bit rate                                 : 13.5 kb/s
Count of elements                        : 2578
Stream size                              : 12.6 MiB (0%)
Title                                    : Estonian
Language                                 : Estonian
Default                                  : No
Forced                                   : No

Text #15
ID                                       : 18
Format                                   : PGS
Codec ID                                 : S_HDMV/PGS
Codec ID/Info                            : Picture based subtitle format used on BDs/HD-DVDs
Duration                                 : 2 h 10 min
Bit rate                                 : 13.5 kb/s
Count of elements                        : 2580
Stream size                              : 12.6 MiB (0%)
Title                                    : Finnish
Language                                 : Finnish
Default                                  : No
Forced                                   : No

Text #16
ID                                       : 19
Format                                   : PGS
Codec ID                                 : S_HDMV/PGS
Codec ID/Info                            : Picture based subtitle format used on BDs/HD-DVDs
Duration                                 : 2 h 4 min
Bit rate                                 : 14.5 kb/s
Count of elements                        : 2576
Stream size                              : 12.9 MiB (0%)
Title                                    : French (Canadian)
Language                                 : French
Default                                  : No
Forced                                   : No

Text #17
ID                                       : 20
Format                                   : PGS
Codec ID                                 : S_HDMV/PGS
Codec ID/Info                            : Picture based subtitle format used on BDs/HD-DVDs
Duration                                 : 2 h 10 min
Bit rate                                 : 11.4 kb/s
Count of elements                        : 2506
Stream size                              : 10.6 MiB (0%)
Title                                    : French (Parisian)
Language                                 : French
Default                                  : No
Forced                                   : No

Text #18
ID                                       : 21
Format                                   : PGS
Codec ID                                 : S_HDMV/PGS
Codec ID/Info                            : Picture based subtitle format used on BDs/HD-DVDs
Duration                                 : 2 h 10 min
Bit rate                                 : 13.3 kb/s
Count of elements                        : 2416
Stream size                              : 12.4 MiB (0%)
Title                                    : German
Language                                 : German
Default                                  : No
Forced                                   : No

Text #19
ID                                       : 22
Format                                   : PGS
Codec ID                                 : S_HDMV/PGS
Codec ID/Info                            : Picture based subtitle format used on BDs/HD-DVDs
Duration                                 : 2 h 11 min
Bit rate                                 : 14.3 kb/s
Count of elements                        : 2488
Stream size                              : 13.5 MiB (0%)
Title                                    : Greek
Language                                 : Greek
Default                                  : No
Forced                                   : No

Text #20
ID                                       : 23
Format                                   : PGS
Codec ID                                 : S_HDMV/PGS
Codec ID/Info                            : Picture based subtitle format used on BDs/HD-DVDs
Duration                                 : 2 h 11 min
Bit rate                                 : 16.7 kb/s
Count of elements                        : 2490
Stream size                              : 15.7 MiB (0%)
Title                                    : Hebrew
Language                                 : Hebrew
Default                                  : No
Forced                                   : No

Text #21
ID                                       : 24
Format                                   : PGS
Codec ID                                 : S_HDMV/PGS
Codec ID/Info                            : Picture based subtitle format used on BDs/HD-DVDs
Duration                                 : 2 h 11 min
Bit rate                                 : 37.4 kb/s
Count of elements                        : 3420
Stream size                              : 35.3 MiB (0%)
Title                                    : Hindi
Language                                 : Hindi
Default                                  : No
Forced                                   : No

Text #22
ID                                       : 25
Format                                   : PGS
Codec ID                                 : S_HDMV/PGS
Codec ID/Info                            : Picture based subtitle format used on BDs/HD-DVDs
Duration                                 : 2 h 10 min
Bit rate                                 : 11.6 kb/s
Count of elements                        : 2470
Stream size                              : 10.9 MiB (0%)
Title                                    : Hungarian
Language                                 : Hungarian
Default                                  : No
Forced                                   : No

Text #23
ID                                       : 26
Format                                   : PGS
Codec ID                                 : S_HDMV/PGS
Codec ID/Info                            : Picture based subtitle format used on BDs/HD-DVDs
Duration                                 : 2 h 10 min
Bit rate                                 : 12.4 kb/s
Count of elements                        : 2468
Stream size                              : 11.6 MiB (0%)
Title                                    : Icelandic
Language                                 : Icelandic
Default                                  : No
Forced                                   : No

Text #24
ID                                       : 27
Format                                   : PGS
Codec ID                                 : S_HDMV/PGS
Codec ID/Info                            : Picture based subtitle format used on BDs/HD-DVDs
Duration                                 : 2 h 11 min
Bit rate                                 : 14.5 kb/s
Count of elements                        : 2474
Stream size                              : 13.7 MiB (0%)
Title                                    : Indonesian
Language                                 : Indonesian
Default                                  : No
Forced                                   : No

Text #25
ID                                       : 28
Format                                   : PGS
Codec ID                                 : S_HDMV/PGS
Codec ID/Info                            : Picture based subtitle format used on BDs/HD-DVDs
Duration                                 : 2 h 9 min
Bit rate                                 : 13.1 kb/s
Count of elements                        : 2202
Stream size                              : 12.1 MiB (0%)
Title                                    : Italian
Language                                 : Italian
Default                                  : No
Forced                                   : No

Text #26
ID                                       : 29
Format                                   : PGS
Codec ID                                 : S_HDMV/PGS
Codec ID/Info                            : Picture based subtitle format used on BDs/HD-DVDs
Duration                                 : 2 h 5 min
Bit rate                                 : 18.0 kb/s
Count of elements                        : 2421
Stream size                              : 16.2 MiB (0%)
Title                                    : Japanese
Language                                 : Japanese
Default                                  : No
Forced                                   : No

Text #27
ID                                       : 30
Format                                   : PGS
Codec ID                                 : S_HDMV/PGS
Codec ID/Info                            : Picture based subtitle format used on BDs/HD-DVDs
Duration                                 : 2 h 11 min
Bit rate                                 : 14.5 kb/s
Count of elements                        : 2482
Stream size                              : 13.7 MiB (0%)
Title                                    : Korean
Language                                 : Korean
Default                                  : No
Forced                                   : No

Text #28
ID                                       : 31
Format                                   : PGS
Codec ID                                 : S_HDMV/PGS
Codec ID/Info                            : Picture based subtitle format used on BDs/HD-DVDs
Duration                                 : 2 h 11 min
Bit rate                                 : 12.6 kb/s
Count of elements                        : 2592
Stream size                              : 11.9 MiB (0%)
Title                                    : Latvian
Language                                 : Latvian
Default                                  : No
Forced                                   : No

Text #29
ID                                       : 32
Format                                   : PGS
Codec ID                                 : S_HDMV/PGS
Codec ID/Info                            : Picture based subtitle format used on BDs/HD-DVDs
Duration                                 : 2 h 11 min
Bit rate                                 : 13.0 kb/s
Count of elements                        : 2478
Stream size                              : 12.2 MiB (0%)
Title                                    : Lithuanian
Language                                 : Lithuanian
Default                                  : No
Forced                                   : No

Text #30
ID                                       : 33
Format                                   : PGS
Codec ID                                 : S_HDMV/PGS
Codec ID/Info                            : Picture based subtitle format used on BDs/HD-DVDs
Duration                                 : 2 h 10 min
Bit rate                                 : 15.0 kb/s
Count of elements                        : 2578
Stream size                              : 14.1 MiB (0%)
Title                                    : Malay
Language                                 : Malay
Default                                  : No
Forced                                   : No

Text #31
ID                                       : 34
Format                                   : PGS
Codec ID                                 : S_HDMV/PGS
Codec ID/Info                            : Picture based subtitle format used on BDs/HD-DVDs
Duration                                 : 2 h 10 min
Bit rate                                 : 10.8 kb/s
Count of elements                        : 2242
Stream size                              : 10.1 MiB (0%)
Title                                    : Norwegian
Language                                 : Norwegian
Default                                  : No
Forced                                   : No

Text #32
ID                                       : 35
Format                                   : PGS
Codec ID                                 : S_HDMV/PGS
Codec ID/Info                            : Picture based subtitle format used on BDs/HD-DVDs
Duration                                 : 2 h 11 min
Bit rate                                 : 12.0 kb/s
Count of elements                        : 2468
Stream size                              : 11.4 MiB (0%)
Title                                    : Polish
Language                                 : Polish
Default                                  : No
Forced                                   : No

Text #33
ID                                       : 36
Format                                   : PGS
Codec ID                                 : S_HDMV/PGS
Codec ID/Info                            : Picture based subtitle format used on BDs/HD-DVDs
Duration                                 : 2 h 5 min
Bit rate                                 : 12.9 kb/s
Count of elements                        : 2474
Stream size                              : 11.5 MiB (0%)
Title                                    : Portuguese (Brazilian)
Language                                 : Portuguese
Default                                  : No
Forced                                   : No

Text #34
ID                                       : 37
Format                                   : PGS
Codec ID                                 : S_HDMV/PGS
Codec ID/Info                            : Picture based subtitle format used on BDs/HD-DVDs
Duration                                 : 2 h 11 min
Bit rate                                 : 13.5 kb/s
Count of elements                        : 2476
Stream size                              : 12.7 MiB (0%)
Title                                    : Portuguese (Iberian)
Language                                 : Portuguese
Default                                  : No
Forced                                   : No

Text #35
ID                                       : 38
Format                                   : PGS
Codec ID                                 : S_HDMV/PGS
Codec ID/Info                            : Picture based subtitle format used on BDs/HD-DVDs
Duration                                 : 2 h 11 min
Bit rate                                 : 11.7 kb/s
Count of elements                        : 2472
Stream size                              : 11.1 MiB (0%)
Title                                    : Romanian
Language                                 : Romanian
Default                                  : No
Forced                                   : No

Text #36
ID                                       : 39
Format                                   : PGS
Codec ID                                 : S_HDMV/PGS
Codec ID/Info                            : Picture based subtitle format used on BDs/HD-DVDs
Duration                                 : 2 h 10 min
Bit rate                                 : 12.8 kb/s
Count of elements                        : 2282
Stream size                              : 12.0 MiB (0%)
Title                                    : Russian
Language                                 : Russian
Default                                  : No
Forced                                   : No

Text #37
ID                                       : 40
Format                                   : PGS
Codec ID                                 : S_HDMV/PGS
Codec ID/Info                            : Picture based subtitle format used on BDs/HD-DVDs
Duration                                 : 2 h 11 min
Bit rate                                 : 12.6 kb/s
Count of elements                        : 2480
Stream size                              : 11.9 MiB (0%)
Title                                    : Serbian
Language                                 : Serbian
Default                                  : No
Forced                                   : No

Text #38
ID                                       : 41
Format                                   : PGS
Codec ID                                 : S_HDMV/PGS
Codec ID/Info                            : Picture based subtitle format used on BDs/HD-DVDs
Duration                                 : 2 h 10 min
Bit rate                                 : 11.3 kb/s
Count of elements                        : 2476
Stream size                              : 10.6 MiB (0%)
Title                                    : Slovak
Language                                 : Slovak
Default                                  : No
Forced                                   : No

Text #39
ID                                       : 42
Format                                   : PGS
Codec ID                                 : S_HDMV/PGS
Codec ID/Info                            : Picture based subtitle format used on BDs/HD-DVDs
Duration                                 : 2 h 10 min
Bit rate                                 : 13.9 kb/s
Count of elements                        : 2534
Stream size                              : 13.0 MiB (0%)
Title                                    : Spanish (Castilian)
Language                                 : Spanish
Default                                  : No
Forced                                   : No

Text #40
ID                                       : 43
Format                                   : PGS
Codec ID                                 : S_HDMV/PGS
Codec ID/Info                            : Picture based subtitle format used on BDs/HD-DVDs
Duration                                 : 2 h 4 min
Bit rate                                 : 13.3 kb/s
Count of elements                        : 2452
Stream size                              : 11.8 MiB (0%)
Title                                    : Spanish (Latin American)
Language                                 : Spanish
Default                                  : No
Forced                                   : No

Text #41
ID                                       : 44
Format                                   : PGS
Codec ID                                 : S_HDMV/PGS
Codec ID/Info                            : Picture based subtitle format used on BDs/HD-DVDs
Duration                                 : 2 h 10 min
Bit rate                                 : 12.1 kb/s
Count of elements                        : 2466
Stream size                              : 11.3 MiB (0%)
Title                                    : Swedish
Language                                 : Swedish
Default                                  : No
Forced                                   : No

Text #42
ID                                       : 45
Format                                   : PGS
Codec ID                                 : S_HDMV/PGS
Codec ID/Info                            : Picture based subtitle format used on BDs/HD-DVDs
Duration                                 : 2 h 11 min
Bit rate                                 : 18.3 kb/s
Count of elements                        : 2482
Stream size                              : 17.3 MiB (0%)
Title                                    : Thai
Language                                 : Thai
Default                                  : No
Forced                                   : No

Text #43
ID                                       : 46
Format                                   : PGS
Codec ID                                 : S_HDMV/PGS
Codec ID/Info                            : Picture based subtitle format used on BDs/HD-DVDs
Duration                                 : 2 h 11 min
Bit rate                                 : 12.6 kb/s
Count of elements                        : 2472
Stream size                              : 11.9 MiB (0%)
Title                                    : Turkish
Language                                 : Turkish
Default                                  : No
Forced                                   : No

Text #44
ID                                       : 47
Format                                   : PGS
Codec ID                                 : S_HDMV/PGS
Codec ID/Info                            : Picture based subtitle format used on BDs/HD-DVDs
Duration                                 : 2 h 11 min
Bit rate                                 : 23.7 kb/s
Count of elements                        : 2598
Stream size                              : 22.4 MiB (0%)
Title                                    : Ukrainian
Language                                 : Ukrainian
Default                                  : No
Forced                                   : No

Text #45
ID                                       : 48
Format                                   : PGS
Codec ID                                 : S_HDMV/PGS
Codec ID/Info                            : Picture based subtitle format used on BDs/HD-DVDs
Duration                                 : 2 h 4 min
Bit rate                                 : 64.1 kb/s
Count of elements                        : 2496
Stream size                              : 56.9 MiB (0%)
Title                                    : Vietnamese
Language                                 : Vietnamese
Default                                  : No
Forced                                   : No

Menu
00:00:00.000                             : en:Chapter 1
00:04:42.741                             : en:Chapter 2
00:11:29.731                             : en:Chapter 3
00:20:02.785                             : en:Chapter 4
00:27:36.154                             : en:Chapter 5
00:33:29.007                             : en:Chapter 6
00:38:19.422                             : en:Chapter 7
00:44:46.934                             : en:Chapter 8
00:51:38.053                             : en:Chapter 9
00:56:05.988                             : en:Chapter 10
01:02:51.017                             : en:Chapter 11
01:09:18.654                             : en:Chapter 12
01:16:33.214                             : en:Chapter 13
01:22:19.351                             : en:Chapter 14
01:31:17.889                             : en:Chapter 15
01:35:58.211                             : en:Chapter 16
01:42:50.748                             : en:Chapter 17
01:51:02.614                             : en:Chapter 18
01:58:27.225                             : en:Chapter 19
02:05:59.677                             : en:Chapter 20
